<svg width="24" height="24" viewBox="0 0 24 24" fill="none" xmlns="http://www.w3.org/2000/svg">
<path fill-rule="evenodd" clip-rule="evenodd" d="M12.0001 23C18.0752 23 23.0001 18.0751 23.0001 12C23.0001 5.92487 18.0752 1 12.0001 1C5.92499 1 1.00012 5.92487 1.00012 12C1.00012 18.0751 5.92499 23 12.0001 23ZM5.14398 17.8201C3.81111 16.2515 3.00695 14.2197 3.00695 12V11.9978C6.61319 11.9618 9.57579 11.4838 12.2423 10.5779C12.4669 11.0605 12.6848 11.5534 12.8957 12.0564C12.5556 12.1691 12.2211 12.2949 11.8919 12.4335C9.24189 13.5489 7.0055 15.4612 5.14398 17.8201ZM6.60626 19.1967C8.10896 20.3248 9.97648 20.9932 12.0001 20.9932C13.2189 20.9932 14.381 20.7507 15.441 20.3114C14.9669 18.0368 14.3521 15.907 13.6266 13.9217C13.3004 14.0264 12.9808 14.1451 12.6678 14.2768C10.3561 15.2499 8.33855 16.9649 6.60626 19.1967ZM15.5925 13.4765C16.248 15.3019 16.813 17.2399 17.2671 19.2902C19.0481 18.0013 20.3381 16.0757 20.8033 13.8473C18.9144 13.3589 17.1822 13.2604 15.5925 13.4765ZM14.8576 11.5662C16.7541 11.2412 18.7997 11.3067 20.9918 11.8332C20.9579 9.97415 20.36 8.25291 19.362 6.8334C17.6359 8.0531 15.9277 9.06168 14.1112 9.85398C14.3688 10.4121 14.6178 10.9829 14.8576 11.5662ZM11.3458 8.76846C8.99746 9.53429 6.39059 9.94463 3.23132 9.9948C3.85737 7.24565 5.74306 4.97565 8.24918 3.82401C9.34953 5.31262 10.3934 6.96064 11.3458 8.76846ZM13.2303 8.05623C14.8877 7.34152 16.4467 6.43089 18.0283 5.32624C16.4334 3.88469 14.3193 3.00683 12.0001 3.00683C11.4015 3.00683 10.8166 3.06531 10.2507 3.17688C11.3104 4.66337 12.313 6.28992 13.2303 8.05623Z" fill="#777E90"/>
</svg>
