<svg width="22" height="19" viewBox="0 0 22 19" fill="none" xmlns="http://www.w3.org/2000/svg">
<path fill-rule="evenodd" clip-rule="evenodd" d="M18.7828 1.58207C19.1314 1.49947 19.3744 1.41826 19.5735 1.33297C19.8525 1.21343 20.0838 1.07023 20.4492 0.829056C20.7564 0.626376 21.15 0.608726 21.474 0.783096C21.798 0.957476 22.0001 1.29572 22.0001 1.66368C22.0001 2.74461 21.8654 3.63055 21.5535 4.41023C21.2912 5.06603 20.9226 5.59869 20.4817 6.0835C20.2955 9.44663 19.322 12.0877 17.8337 14.0886C16.2911 16.1625 14.2387 17.4906 12.0751 18.2343C9.918 18.9759 7.6387 19.1416 5.59678 18.8905C3.56824 18.6411 1.69312 17.9695 0.38613 16.953C0.0282001 16.6746 -0.0976109 16.1902 0.0795901 15.7728C0.25678 15.3554 0.69264 15.1095 1.14152 15.1737C2.42749 15.3574 3.66538 15.065 4.68327 14.647C4.48289 14.5379 4.29396 14.42 4.11836 14.2984C3.19083 13.6563 2.44248 12.7846 2.10564 12.1109C1.96626 11.8322 1.96482 11.5043 2.10175 11.2244C2.17239 11.0799 2.27569 10.9567 2.40111 10.8629C1.04685 9.74523 0.50007 8.19933 0.50007 7.16368C0.50007 6.85574 0.64194 6.56497 0.88467 6.37547C0.98672 6.29579 1.10182 6.23774 1.22316 6.20278C1.12182 5.90604 1.04318 5.60623 0.98324 5.31599C0.71747 4.02912 0.74106 2.57666 1.02992 1.42115C1.12878 1.02573 1.45772 0.729876 1.86136 0.673346C2.26501 0.616806 2.66257 0.810906 2.86625 1.16396C3.94376 3.03164 5.93123 4.17326 7.78094 4.8495C8.65058 5.16744 9.456 5.37004 10.0597 5.4946C10.19 4.27401 10.5308 3.26742 11.0539 2.46793C11.7439 1.41314 12.7064 0.789066 13.7401 0.510796C15.5228 0.0308964 17.5009 0.577636 18.7828 1.58207ZM9.7485 7.47227C9.0634 7.3347 8.12179 7.10359 7.0942 6.7279C5.73698 6.23171 4.16096 5.458 2.8408 4.25953C2.86442 4.48007 2.89797 4.69874 2.9419 4.91148C3.16315 5.98282 3.57427 6.58281 3.94728 6.76931C4.40349 6.99742 4.61492 7.53233 4.43795 8.01073C4.19835 8.65833 3.56817 8.71153 2.99558 8.56843C3.45611 9.25883 4.28385 9.94723 5.66447 10.1773C6.14065 10.2567 6.49216 10.6649 6.49994 11.1476C6.50772 11.6303 6.16956 12.0496 5.69618 12.1443L4.82572 12.3184C4.95888 12.4341 5.10308 12.5476 5.25678 12.654C5.95369 13.1365 6.65344 13.3446 7.25753 13.1936C7.70998 13.0805 8.18055 13.2951 8.3917 13.711C8.60286 14.1268 8.49853 14.6334 8.14025 14.9319C7.49633 15.4679 6.74433 15.8979 5.99065 16.2549C5.63683 16.4225 5.24142 16.5879 4.81197 16.7335C5.14226 16.804 5.48594 16.8618 5.84086 16.9055C7.61143 17.1232 9.5822 16.9764 11.425 16.343C13.2614 15.7117 14.959 14.6023 16.2289 12.895C17.4971 11.19 18.3821 8.83053 18.5008 5.62673C18.5101 5.37449 18.6145 5.13512 18.793 4.95663C19.2426 4.50698 19.6142 3.9916 19.797 3.37812C19.4771 3.47785 19.1169 3.56417 18.6878 3.64619C18.3624 3.70841 18.0273 3.60538 17.793 3.37109C17.0284 2.60656 15.5165 2.1038 14.26 2.44204C13.6687 2.60123 13.1312 2.94585 12.7275 3.56288C12.3154 4.19286 12.0001 5.17427 12.0001 6.66372C12.0001 6.9467 11.8802 7.21642 11.6701 7.40603C11.1721 7.85553 10.334 7.58985 9.7485 7.47227Z" fill="#777E90"/>
</svg>
